<svg xmlns:xlink="http://www.w3.org/1999/xlink" width="48" xmlns="http://www.w3.org/2000/svg" height="48" id="screenshot-f2d18b2b-e460-8099-8002-6acedf80c76a" viewBox="0 0 48 48" style="-webkit-print-color-adjust: exact;" fill="none" version="1.1"><g id="shape-f2d18b2b-e460-8099-8002-6acedf80c76a" rx="0" ry="0"><g id="shape-f2d18b2b-e460-8099-8002-6acedf80c76b"><g class="fills" id="fills-f2d18b2b-e460-8099-8002-6acedf80c76b"><path rx="0" ry="0" d="M5.639,29.946C5.639,29.946,7.864,17.157,15.553,15.089C20.465,13.768,22.409,14.551,25.849,13.626C33.943,11.449,32.781,0.006,32.781,0.006C32.781,0.006,38.565,17.608,27.490,20.586C23.077,21.338,18.341,20.435,13.755,22.757C7.107,26.286,5.639,29.946,5.639,29.946Z" style="fill: rgb(33, 29, 112); fill-opacity: 1;"/></g></g><g id="shape-f2d18b2b-e460-8099-8002-6acedf80c76c"><g class="fills" id="fills-f2d18b2b-e460-8099-8002-6acedf80c76c"><path rx="0" ry="0" d="M10.417,38.973C10.417,38.973,12.642,26.184,20.331,24.116C25.243,22.795,27.187,23.578,30.627,22.653C38.721,20.476,37.559,9.033,37.559,9.033C37.559,9.033,43.342,26.635,32.268,29.613C27.855,30.365,23.119,29.462,18.533,31.783C11.885,35.313,10.417,38.973,10.417,38.973Z" style="fill: rgb(97, 17, 106); fill-opacity: 1;"/></g></g><g id="shape-f2d18b2b-e460-8099-8002-6acedf80c76d"><g class="fills" id="fills-f2d18b2b-e460-8099-8002-6acedf80c76d"><path rx="0" ry="0" d="M15.194,48.000C15.194,48.000,17.419,35.211,25.109,33.143C30.021,31.822,31.965,32.605,35.405,31.680C43.499,29.503,42.337,18.060,42.337,18.060C42.337,18.060,48.120,35.662,37.046,38.640C32.633,39.392,27.896,38.488,23.311,40.810C16.662,44.340,15.194,48.000,15.194,48.000Z" style="fill: rgb(254, 190, 16); fill-opacity: 1;"/></g></g></g></svg>